<?xml version="1.0" standalone="no"?>
<!DOCTYPE svg PUBLIC "-//W3C//DTD SVG 1.0//EN" "http://www.w3.org/TR/2001/REC-SVG-20010904/DTD/svg10.dtd">
<svg xmlns="http://www.w3.org/2000/svg" xmlns:xlink="http://www.w3.org/1999/xlink" id="body_1" width="2400" height="2720">

<defs>
    <linearGradient transform="matrix(1 0 -0 -1 0 2132)"  id="1" x1="203.513" y1="1729.018" x2="967.987" y2="404.982">
        <stop stop-color="#18884F" offset="0%"/>
        <stop stop-color="#0B6631" offset="100%"/>
    </linearGradient>
</defs>

<g transform="matrix(0.8062688 0 0 0.8062688 276.55017 500.92065)">
    <path d="M1437.75 1011.75L532.5 852L532.5 2032.393C 532.5 2086.3 576.2 2130 630.107 2130L630.107 2130L2192.143 2130C 2246.05 2130 2289.75 2086.3 2289.75 2032.393L2289.75 2032.393L2289.75 1597.5L1437.75 1011.75z" stroke="none" fill="#185C37" fill-rule="nonzero" />
    <path d="M1437.75 0L630.107 0C 576.2 0 532.5 43.7 532.5 97.607L532.5 97.607L532.5 532.5L1437.75 1065L1917 1224.75L2289.75 1065L2289.75 532.5L1437.75 0z" stroke="none" fill="#21A366" fill-rule="nonzero" />
    <path d="M532.5 532.5L1437.75 532.5L1437.75 1065L532.5 1065L532.5 532.5z" stroke="none" fill="#107C41" fill-rule="nonzero" />
    <path d="M1180.393 426L532.5 426L532.5 1757.25L1180.3931 1757.25C 1234.227 1757.075 1277.8251 1713.477 1278.0001 1659.643L1278.0001 1659.643L1278.0001 523.607C 1277.8251 469.773 1234.2272 426.175 1180.3931 426L1180.3931 426L1180.393 426z" stroke="none" fill="#000000" fill-rule="nonzero" fill-opacity="0.09803922" />
    <path d="M1127.143 479.25L532.5 479.25L532.5 1810.5L1127.1431 1810.5C 1180.977 1810.325 1224.5751 1766.727 1224.7501 1712.893L1224.7501 1712.893L1224.7501 576.857C 1224.5751 523.023 1180.9772 479.425 1127.1431 479.25L1127.1431 479.25L1127.143 479.25z" stroke="none" fill="#000000" fill-rule="nonzero" fill-opacity="0.2" />
    <path d="M1127.143 479.25L532.5 479.25L532.5 1704L1127.1431 1704C 1180.977 1703.825 1224.5751 1660.227 1224.7501 1606.393L1224.7501 1606.393L1224.7501 576.857C 1224.5751 523.023 1180.9772 479.425 1127.1431 479.25L1127.1431 479.25L1127.143 479.25z" stroke="none" fill="#000000" fill-rule="nonzero" fill-opacity="0.2" />
    <path d="M1073.893 479.25L532.5 479.25L532.5 1704L1073.8931 1704C 1127.727 1703.825 1171.3251 1660.227 1171.5001 1606.393L1171.5001 1606.393L1171.5001 576.857C 1171.3251 523.023 1127.7272 479.425 1073.8931 479.25L1073.8931 479.25L1073.893 479.25z" stroke="none" fill="#000000" fill-rule="nonzero" fill-opacity="0.2" />
    <path d="M97.607 479.25L1073.892 479.25C 1127.799 479.25 1171.499 522.95 1171.499 576.857L1171.499 576.857L1171.499 1553.142C 1171.499 1607.049 1127.7991 1650.749 1073.892 1650.749L1073.892 1650.749L97.607 1650.749C 43.7 1650.75 0 1607.05 0 1553.143L0 1553.143L0 576.857C 0 522.95 43.7 479.25 97.607 479.25z" stroke="none" fill="url(#1)" />
    <path d="M302.3 1382.264L507.632 1064.095L319.5 747.683L470.836 747.683L573.502 950.03296C 582.981 969.256 589.477 983.527 592.992 992.95197L592.992 992.95197L594.323 992.95197L592.992 992.95197L594.323 992.95197L725.371 747.79L864.3 747.79L671.375 1062.338L869.2 1382.263L721.378 1382.263L602.79 1160.158L592.992 992.95197L594.323 992.95197L725.371 747.79L864.3 747.79L671.375 1062.338L869.2 1382.263L721.378 1382.263L602.79 1160.158L601.03296 1160.158L592.992 992.95197L594.323 992.95197L725.371 747.79L864.3 747.79L671.375 1062.338L869.2 1382.263L721.378 1382.263L602.79 1160.158L601.03296 1160.158L478.93097 1383.169L302.3 1382.264z" stroke="none" fill="#FFFFFF" fill-rule="nonzero" />
    <path d="M2192.143 0L1437.75 0L1437.75 532.5L2289.75 532.5L2289.75 97.607C 2289.75 43.7 2246.05 0 2192.143 0z" stroke="none" fill="#33C481" fill-rule="nonzero" />
    <path d="M1437.75 1065L2289.75 1065L2289.75 1597.5L1437.75 1597.5L1437.75 1065z" stroke="none" fill="#107C41" fill-rule="nonzero" />
</g>
</svg>